<?xml version="1.0" encoding="utf-8"?>
<!-- Generator: Adobe Illustrator 22.0.1, SVG Export Plug-In . SVG Version: 6.00 Build 0)  -->
<svg version="1.1" xmlns="http://www.w3.org/2000/svg" xmlns:xlink="http://www.w3.org/1999/xlink" x="0px" y="0px"
	 viewBox="0 0 1366 768" style="enable-background:new 0 0 1366 768;" xml:space="preserve">
<style type="text/css">
	.st0{fill:#FF7BAC;}
</style>
<g id="レイヤー_1">
</g>
<g id="レイヤー_2">
	<path d="M173.5,376.1c1.7-2.3,4.2-3.7,6.6-5.1c28.5-15.9,57.1-31.5,85.9-46.8c-3.3,15.9-6.6,31.8-10,47.7c-1,4.6-2.8,10.1-7.4,11.1
		c-6.7,1.5-9.3,9.4-10.8,16c-6.1,27.3-12.2,54.7-18.3,82c-0.7,3-4.3,4-7.3,4.5c-13.8,2.2-27.7,4.5-41.5,6.7
		c-1.1,0.2-2.4,0.3-3.2-0.5c-0.8-0.8-0.6-2.2-0.4-3.4c5-21.9,10.2-43.8,15.5-65.6c-8,3.4-15.8,7.3-23.2,11.8
		c3.1-17.3,6.9-34.6,11.4-51.6C171.3,380.6,172,378.1,173.5,376.1z"/>
	<path d="M510.2,249.5c11.1-0.1,22.2-0.2,33.3-0.3c-22.9,29.5-45.8,59-68.8,88.5c-2.3,2.9-4.6,6.9-2.7,10.1
		c15.6,25.3,31.2,50.7,46.8,76c1,1.7,2,3.9,0.7,5.4c-0.7,0.8-1.9,1-2.9,1.2c-12.2,1.9-24.4,3.8-36.5,5.7c-1.8,0.3-3.8,0.6-5.5-0.3
		c-1.5-0.7-2.5-2.2-3.4-3.7c-16.9-26.5-33.7-53.1-50.6-79.6c-0.8-1.3-1.7-2.7-1.7-4.2c-0.1-2,1.3-3.7,2.5-5.3
		c23.6-29.3,47.3-58.6,70.9-88C496.4,250.1,503.7,249.6,510.2,249.5z"/>
	<path d="M282.2,326.6c0.5-2.7,1.2-5.7,3.4-7.4c1.8-1.4,4.3-1.7,6.6-1.9c34.3-2.6,68.7-5.1,103.1-7.4c-2.3,11.8-4.5,23.6-6.8,35.4
		c-0.9,4.8-3.9,11.1-8.7,9.8c-4.1-1.1-8.4,1.3-10.9,4.8c-2.4,3.4-3.4,7.7-4.3,11.8c-6.1,28.4-12.2,56.8-18.3,85.2
		c-0.5,2.3-1.1,4.8-2.8,6.4c-1.6,1.5-3.9,1.9-6.1,2.3c-17.9,2.9-35.9,5.8-53.8,8.7c-1.1,0.2-2.5,0.3-3.3-0.5
		c-0.8-0.8-0.6-2.2-0.3-3.3c3-13.6,6.1-27.2,9.1-40.9c0.7-3,4.3-4.4,7.4-4.5c3.1-0.1,6.3,0.6,9.2-0.5c5-1.9,6.7-7.8,7.8-13
		c3.6-16.9,7.2-33.7,10.8-50.6c-16.6,2-33.3,3.4-49.9,4.3C277,352.5,279.6,339.6,282.2,326.6z"/>
	<path d="M200.3,289.9c27.4-14.4,54.9-28.6,82.5-42.7c-2.8,14.8-5.8,29.6-8.8,44.4c-0.7,3.6-1.6,7.3-3.8,10.2
		c-1.9,2.4-4.7,3.9-7.4,5.4c-27.8,15.1-55.7,30.3-83.5,45.4c3.1-16.8,6.7-33.5,10.8-50c0.6-2.5,1.3-5,2.7-7
		C194.6,292.9,197.5,291.3,200.3,289.9z"/>
	<path d="M698.4,367.3c5.1-0.7,10.1-1.4,15.2-2.1c1.1-0.1,2.1-0.3,3.2,0c2,0.6,3.1,2.5,4.1,4.3c5.1,9.6,10.2,19.2,15.3,28.8
		c0.7,1.3,1.3,3.2,0.1,4.1c-0.4,0.3-1,0.4-1.5,0.5c-5.3,0.8-10.5,1.6-15.8,2.4c-1.1,0.2-2.3,0.3-3.3-0.2c-1.1-0.5-1.7-1.6-2.3-2.7
		c-5.6-10.4-11.3-20.9-16.9-31.3c-0.4-0.8-0.9-1.8-0.5-2.6C696.2,367.6,697.4,367.4,698.4,367.3z"/>
	<path d="M714.2,266c-4.1,0.3-8.2,0.6-12.3,0.9c-1.7,0.1-3.8,0-4.4-1.5c-0.3-0.7-0.2-1.5,0-2.3c1.6-8.7,3.2-17.4,4.8-26.1
		c0.4-2.3,1-4.8,3-6c1.2-0.8,2.8-0.8,4.2-0.9c3.8-0.1,7.7-0.2,11.5-0.3c0.6,0,1.2,0,1.6,0.3c0.8,0.6,0.7,1.8,0.6,2.7
		c-1.6,9-3.1,17.9-4.7,26.9C718.1,262.5,717,265.8,714.2,266z"/>
	<path d="M408.2,252.8c-2.4,11.8-4.8,23.6-7.3,35.3c-0.3,1.3-0.6,2.8-1.6,3.7c-1.1,1-2.7,1.2-4.2,1.3c-34.1,2.3-68.2,4.5-102.3,6.8
		c-0.9,0.1-1.9,0.1-2.6-0.4c-1.3-0.9-1.1-2.9-0.8-4.5c2.8-12.6,5.6-25.1,8.5-37.7c0.3-1.3,0.6-2.7,1.6-3.5c1-0.9,2.5-0.9,3.8-1
		c33.8-1.4,67.6-2.7,101.4-4.1c1.1,0,2.4,0,3.1,0.8C408.6,250.3,408.4,251.7,408.2,252.8z"/>
	<path d="M1096.5,307.3c2.2-2.4,4.9-4.5,8.1-5.2c4.8-1.1,10,1.2,13.2,5c3.2,3.8,4.5,8.9,4.7,13.8c0.3,8.6-2.7,17.3-8.3,23.8
		c-2.7,3.1-6.1,5.8-10.2,6.4c-4.5,0.6-9-1.7-11.9-5.2c-2.9-3.5-4.2-8-4.6-12.5C1086.7,323.8,1090.1,314.2,1096.5,307.3
		 M1102.6,321.1c-1.8,2.7-2.6,6-2.3,9.3c0.1,1,0.3,2,1,2.7c1.3,1.5,3.8,1.3,5.3,0c1.5-1.2,2.3-3.1,3-4.9c0.7-1.9,1.4-4,1-6.1
		c-0.4-2-2.1-4-4.2-3.9C1104.7,318.4,1103.4,319.7,1102.6,321.1z"/>
	<path d="M738.4,264.4c-3.3,0.2-6.6,0.4-9.9,0.6c-1.4,0.1-3.1-0.1-3.5-1.4c-0.2-0.5-0.1-1,0-1.5c1.6-9.4,3.2-18.9,4.9-28.3
		c0.2-1.1,0.4-2.2,1.2-3c1-1,2.5-1.1,3.8-1.2c4.1-0.2,8.1-0.5,12.2-0.7c0.7,0,1.5-0.1,2.1,0.4c0.9,0.7,0.8,2.1,0.6,3.2
		c-1.5,9-3,17.9-4.5,26.9c-0.2,1-0.4,2.1-0.9,2.9C743.1,264,740.6,264.3,738.4,264.4z"/>
	<path d="M707.3,275.5c-1.9,10.3-3.7,20.6-5.6,31c-0.6,3.1-4.3,4.6-7.5,4.6c-3.2,0.1-6.5-0.7-9.5,0.5c-5,2-6.6,8.3-6.8,13.7
		c-0.2,5.4-0.1,11.4-3.7,15.4c-3.6,3.9-9.4,4.4-14.7,4.7c-4.8,0.2-9.6,0.4-14.4,0.6c-1,0-2.1,0-2.8-0.7c-0.8-0.8-0.6-2.2-0.4-3.3
		c1.5-7.8,3-15.5,4.5-23.3c0.5-2.6-3.4-3.6-6-3.3c-5.7,0.6-11.4,1.2-17.1,1.7c-2.2,0.2-4.6,0.5-6.2,2.1c-1.4,1.4-1.8,3.4-2.1,5.3
		c-3.3,17.2-6.6,34.4-9.9,51.6c-0.2,0.9-0.3,2,0.3,2.7c0.7,0.8,1.8,0.7,2.8,0.6c25.2-3.3,50.4-6.6,75.6-9.9c-1,10-2.4,20-4.2,29.9
		c-0.3,1.8-0.8,3.8-2.2,5c-1.1,0.9-2.5,1.1-3.9,1.3c-36.8,5.7-73.6,11.4-110.3,17.1c-1.2,0.2-2.7,0.3-3.5-0.6
		c-0.9-0.9-0.7-2.3-0.4-3.5c6.2-31.3,12.5-62.6,18.7-93.9c0.4-2-2.4-2.8-4.4-2.8c-6.3,0.1-12.6,0.2-18.9,0.3c2-11.2,4-22.4,6.1-33.7
		c0.7-4.1,5.8-5.8,10-5.7c4.2,0.1,8.7,1.1,12.4-0.8c5.7-3,6-10.9,6.4-17.3c0.4-6.4,3.2-14.5,9.7-14.6c8.8-0.2,17.6-0.4,26.4-0.6
		c1.5,0,3.6,0.6,3.3,2.1c-1.5,7.9-3.1,15.9-4.6,23.8c-0.2,1.1-0.4,2.3,0.3,3.2c0.8,1,2.3,1,3.6,0.9c6.4-0.5,12.7-1,19.1-1.5
		c2.4-0.2,5-0.5,6.5-2.3c0.9-1.1,1.2-2.6,1.5-4c1.9-9.5,3.8-19,5.8-28.5c10.7-1.5,21.5-1.5,32.2-0.1c-1.9,9.3-3.7,18.6-5.6,27.9
		c-0.2,1.2-0.4,2.7,0.6,3.5c0.6,0.5,1.4,0.5,2.2,0.5C696.1,275.3,701.7,275.4,707.3,275.5z"/>
	<path d="M1184.4,515.1c-0.7,0.4-1.5,0.5-2.4,0.6c-4.7,0.5-9.6,0.7-14.2-0.7c-4.5-1.4-8.8-4.7-10.1-9.2c-0.7-2.3-0.6-4.8-0.5-7.3
		c0.3-7.6,0.5-15.3,0.8-22.9c0.1-2.5,0.4-5.3,2.4-6.8c2.5-1.8,6.2-0.2,7.7,2.4c1.6,2.6,1.5,5.9,1.5,8.9c-0.1,6.3-0.3,12.5-0.4,18.8
		c0,1.1,0,2.3,0.6,3.2c1.7,2.8,6,0.9,9.3,0.7c2.7-0.2,5.4,1.2,6.8,3.5c1.4,2.3,1.4,5.4-0.2,7.6
		C1185.3,514.3,1184.9,514.8,1184.4,515.1 M1163.2,472.2c-2,2.8-2.1,6.6-2.1,10.1c0,4.5,0,9.1-0.1,13.6c0,4.5,0.2,9.4,3.3,12.6
		c3.5,3.6,9.1,3.5,14,3.2c1.4-0.1,3-0.3,4-1.4s0.2-3.3-1.2-3.1c-2.9,0.5-5.9,0.9-8.8,0.4c-2.9-0.5-5.7-2.3-6.8-5
		c-0.7-1.7-0.6-3.5-0.5-5.3c0.2-5.5,0.4-10.9,0.6-16.4C1165.8,477.8,1165.7,474.2,1163.2,472.2z"/>
	<path d="M937.1,515.8c-4.7,0.3-9.4,0.5-13.9-0.7s-8.7-4.4-10.1-8.9c-0.6-2-0.6-4.1-0.6-6.2c0-5.7,0.1-11.4,0.1-17
		c0-1.9,0-3.8,0.6-5.6c2.1-6.8,10.5-8.9,17.6-9.2c3-0.1,6.2-0.1,8.8,1.4c2.6,1.5,4.3,5,2.8,7.6c-1.5,2.8-5.3,3.1-8.5,2.9
		c-3.1-0.2-6.8-0.3-8.9,2c-0.4,0.5-0.8,1-0.7,1.7c0.1,2.4,3.9,1.6,6,2.5c2.4,1.1,2.6,4.4,2.3,7c-0.1,1.4-0.3,2.9-1.4,3.7
		c-1.1,0.9-2.7,0.8-4.1,1c-1.4,0.2-3.1,1.3-2.7,2.7c1.2,2.4,4.3,3.1,7,3c2.7-0.1,5.5-0.6,8,0.5c2.4,1.2,3.8,4.1,3.3,6.7
		C942.2,513.5,939.7,515.6,937.1,515.8 M918.6,507.7c3.3,4.1,9.4,4.3,14.8,4.2c1.5,0,3.2-0.2,4.2-1.3c1-1.1,0.3-3.5-1.2-3.2
		c-3.1,0.5-6.3,0.9-9.3,0.1c-3-0.8-5.9-2.8-6.9-5.8c-1-3,0.6-6.8,3.7-7.6c1.2-0.3,2.6-0.2,3.7-0.9s0.9-2.9-0.3-2.8
		c-3.1,0.2-6.1-1.9-7-4.9c-0.9-2.9,0.6-6.4,3.3-7.9c3.4-1.9,7.7-0.5,11.6-0.9c1.6-0.2,3.5-1.5,2.7-2.9c-0.4-0.7-1.3-0.9-2.1-1
		c-3.4-0.4-6.9-0.9-10.3-0.2c-3.4,0.6-6.7,2.6-8.2,5.7c-1,2.1-1,4.5-1,6.8c0,3.7,0,7.3-0.1,11C916,500.3,916.1,504.6,918.6,507.7z"
		/>
	<path d="M793.4,481c-0.9,1.2-0.2,3,1.1,3.8c1.2,0.8,2.8,0.9,4.2,1.3c8.2,1.9,13.6,11.8,10.7,19.7c-2.9,7.9-13.5,11.9-20.9,7.9
		c-2.6-1.4-4.8-3.7-5.2-6.6s1.6-6.1,4.5-6.4c1.7-0.1,3.2,0.7,4.8,1.2c1.6,0.5,3.5,0.8,4.8-0.3c1.3-1.1,0.7-3.8-1-3.7
		c-9,0.6-17.2-8.4-15.8-17.3s12.1-14.9,20.4-11.6c3.3,1.3,6.3,4.2,6.5,7.7s-3.4,7.2-6.7,6c-1.3-0.4-2.3-1.4-3.5-2.1
		C796,480.1,794.3,480,793.4,481 M789.1,504.6c-1.2,0.8-1.4,2.7-0.7,4.1c0.7,1.3,2.1,2.1,3.6,2.6c5.7,1.8,12.6-2.1,14-7.9
		c1.4-5.8-2.9-12.4-8.8-13.5c-1.3-0.2-2.6-0.2-3.8-0.6c-3.9-1.2-6-6.4-3.8-9.9s7.7-4.1,10.6-1.2c1,1.1,3.1-0.2,3-1.7
		c0-1.5-1.4-2.7-2.7-3.4c-6-3-14.4,0.9-15.8,7.5c-1.4,6.6,4.5,13.7,11.2,13.4c3.7-0.1,6.7,3.8,6.1,7.5c-0.4,2.8-2.7,5.2-5.4,5.9
		S790.8,506.9,789.1,504.6z"/>
	<path d="M1007.5,498.5c0.7,1.6,0.6,3.5,0.2,5.2c-1.4,6.2-6.9,11.4-13.3,12.1c-6.4,0.7-13-3.4-15-9.4c-1-2.9-1-6.1-0.9-9.2
		c0.1-5.1,0.1-10.1,0.2-15.2c0.1-6.2,5-11.9,11-13.2c6-1.4,12.7,1.5,16.2,6.5c2.3,3.3,3.3,7.8,1.2,11.2c-2.1,3.4-8,4-9.9,0.4
		c-1.1-2.2-1-5.7-3.4-6.2c-2.6-0.6-3.8,3.1-3.8,5.8c0,3.9,0,7.8,0,11.8c0,2.5,1.2,5.9,3.6,5.2c1.8-0.5,1.9-2.9,2.4-4.7
		c0.8-2.3,3.1-4.1,5.6-4.2C1004.1,494.6,1006.6,496.2,1007.5,498.5 M999.5,501.1c0,2.6-1.7,5.1-4.2,6c-2.4,0.9-5.4,0.2-7.1-1.8
		c-1.9-2.2-2.2-5.4-2.2-8.4c0-4.6,0.2-9.2,0.6-13.8c0.1-1.2,0.3-2.5,0.8-3.6c1.3-2.6,4.7-3.8,7.4-2.8c2.7,0.9,4.7,3.6,5.1,6.5
		c0.2,1.6,2.8,1.6,3.6,0.3c0.8-1.3,0.4-3.1-0.4-4.5c-2.1-3.9-6.3-6.7-10.8-6.7c-4.4,0-8.8,3.2-9.9,7.5c-0.4,1.5-0.4,3.2-0.4,4.7
		c0,4.6,0.1,9.2,0.1,13.8c0,1.9,0,3.9,0.5,5.7c1.2,4.4,5.5,7.7,10.1,7.9s9-3,10.5-7.4c0.5-1.5,0.6-3.3-0.5-4.4
		C1002,499.1,999.5,499.6,999.5,501.1z"/>
	<path d="M1100.2,487.6c-2.5-4.5,1.3-11,6.5-10.9c5.1,0.1,8.8,6.8,6,11.1c-0.6,1-1.6,1.9-2.8,1.9c-1.8,0-3.5,0-5.3,0.1
		c-0.9,0-1.8,0-2.6-0.3C1101.2,489.1,1100.6,488.4,1100.2,487.6 M1104.1,481.7c-1.1,1.6,0.2,4.3,2.2,4.4s3.6-2.3,2.7-4.1
		C1108.1,480.3,1105.2,480.1,1104.1,481.7z"/>
	<path d="M1046.1,469.7c1.5-1.6,4-2.2,6.1-1.4c2.1,0.8,3.5,2.9,3.5,5.1c0.1,11.2,0.1,22.4,0.2,33.5c0,2.6-0.1,5.5-1.7,7.5
		c-1.4,1.7-4,2.4-6.1,1.6c-2.1-0.8-3.6-2.9-3.6-5.1c-0.1-11.1-0.2-22.2-0.3-33.3C1044.1,474.8,1044.2,471.7,1046.1,469.7
		 M1049.6,472.7c-1.9,1.4-2,4.1-2,6.5c0,9.3,0,18.7,0.1,28c0,1.8,0.9,4.4,2.6,3.8c1.2-0.4,1.4-1.9,1.4-3.2c0-10.5,0-21.1,0-31.6
		C1051.7,474.6,1051.1,472.5,1049.6,472.7z"/>
	<path d="M865,488.8c-1,0.7-2.3,1.2-3.5,1.3c-4.5,0.3-8.5-4.6-7.3-8.9c1.2-4.3,7.1-6.4,10.8-3.9S868.6,486.2,865,488.8 M858.9,484.4
		c0.8,1.7,3.7,1.9,4.8,0.4c1.1-1.6-0.1-4.2-2.1-4.3C859.7,480.3,858.1,482.6,858.9,484.4z"/>
	<path d="M1109.2,510.7c-0.5-2.1,0.1-4.3,0.3-6.4s-0.1-4.6-1.9-5.9c-1.8-1.3-5,0.1-4.5,2.2c0.8,3.4,1.6,6.9,0.4,10.2
		c-1.1,3.3-4.9,5.9-8,4.5c-3.3-1.5-3.8-5.9-3.7-9.6c0.1-7.7,0.2-15.5,0.3-23.2c0.1-7,5.9-13.5,12.8-14.3c6.9-0.9,14.1,4,15.9,10.7
		c0.7,2.7,0.6,5.5,0.6,8.2c-0.2,7.7-0.4,15.4-0.6,23.2c0,1.3-0.1,2.9-1.2,3.7C1116.3,517,1110.2,515,1109.2,510.7 M1096.9,478
		c-1.8,3.3-1.7,7.2-1.7,10.9c0.1,6,0.2,11.9,0.3,17.9c0,1,0.1,2.2,0.7,3c0.6,0.9,2,1.2,2.7,0.5c0.3-0.3,0.4-0.8,0.5-1.2
		c0.8-4.5-1.4-9.6,1.3-13.3c2.1-2.9,6.7-3.3,9.6-1.2c2.9,2.1,4.1,6.1,3.3,9.6c-0.3,1.4-0.9,2.8-0.7,4.3c0.2,1.4,1.7,2.8,3,2.2
		c1.2-0.5,1.3-2.1,1.3-3.4c0-7.1,0.1-14.1,0.1-21.2c0-1.9,0-3.9-0.5-5.7c-1.1-4.2-4.9-7.5-9.2-8C1103.5,471.9,1099,474.2,1096.9,478
		z"/>
	<path d="M846.2,488.8c0-3.7-0.1-7.4,1.2-10.9c2.5-6.7,10.4-10.9,17.4-9.3s12.2,8.9,11.4,16.1s-7.3,13.2-14.5,13.4
		c-2.5,0.1-3.8,3.1-3.6,5.6c0.2,2.5,1.2,5,0.8,7.4c-0.5,2.5-2.7,4.6-5.2,5c-2.5,0.4-5.2-1-6.4-3.3c-0.9-1.7-0.9-3.7-0.9-5.6
		C846.4,501,846.3,494.9,846.2,488.8 M850.3,487.4c0.1,7.1,0.2,14.2,0.3,21.3c0,0.3,0,0.6,0.1,0.9c0.5,1.4,2.7,1.3,3.6,0.2
		c0.9-1.2,0.8-2.8,0.6-4.2c-0.4-2.5-1-5-0.5-7.5c0.5-2.5,2.8-4.8,5.2-4.4c5.4,1,11.2-2.8,12.5-8.1s-2.1-11.4-7.3-13
		c-5.2-1.7-11.5,1.3-13.5,6.4C850.3,481.6,850.3,484.6,850.3,487.4z"/>
	<g>
		<g>
			<g>
				<path class="st0" d="M898.9,295.2c-2-0.4-4,1-4.3,3.1l-0.3,2.3c-0.3,2.1-2.4,4-4.6,4.1l-117.4,6.9c-2.2,0.1-3.7-1.6-3.4-3.7
					l0.2-1.5c0.3-2.2-1.2-3.5-3.4-2.8l-7.3,1.9c-2.2,0.6-3.8-0.8-3.4-3l5.9-40.7c0.3-2.2,2.4-4.6,4.5-5.4l37.5-15.1
					c1.8-1.5,5.1-2.8,7.3-2.9l60.5-2.4c2.2-0.1,5.2,0.9,6.6,2.2l34.5,11.8c2,0.5,3.4,2.7,3.1,4.8l-5.6,38.2
					c-0.3,2.1-2.3,3.6-4.4,3.3L898.9,295.2z M856.2,388.5c-2.2,0.2-4.1-0.8-4.3-2.1c-0.2-1.3-2.1-1.9-4.3-1.2l-39.6,7.1
					c-2.2,0.3-5.8,0.6-8,0.8l-53,4.3c-2.2,0.2-3.7-1.5-3.4-3.7l4.2-29.3c0.3-2.2,2.3-4.1,4.5-4.3c2.1-0.2,4.7-2,5.6-4.1
					c0.9-2.1-0.1-3.7-2.3-3.5l-2.1,0.1c-2.2,0.2-3.7-1.5-3.4-3.7l4.1-28.5c0.3-2.2,2.4-4.1,4.6-4.2l142.7-8.5
					c2.2-0.1,3.7,1.5,3.4,3.6l-4,27.3c-0.3,2.1-2.4,4-4.5,4.1c-2.2,0.2-3.8,1.9-3.5,3.9l4.5,34.8c0.3,2-1.3,3.8-3.5,4L856.2,388.5z
					 M847.9,348.6c-0.1-1.4-2-2.4-4.2-2.2l-32.7,2.3c-2.2,0.2-4.8,2-5.7,4c-0.9,2.1,0.1,3.6,2.3,3.5l6.9-0.5c2.2-0.2,5.8-0.5,8-0.7
					l21.6-3.1C846.3,351.4,848,350,847.9,348.6z M839.8,269c-1.5-1.3-4.2-1.1-6.1,0.4l-9.4,7c-2,1.3-1.8,2.4,0.4,2.2l22.3-1.1
					c2.2-0.1,2.7-1.1,1-2.2L839.8,269z"/>
			</g>
			<g>
				<path class="st0" d="M962,375.7c-0.5,2.1-2.7,3.9-4.9,4.1l-32.3,2.6c-2.2,0.2-3.6-1.4-3.1-3.5l13.4-55c0.4-2.1,2.6-3.9,4.8-4.1
					l30.9-2c2.2-0.1,3.7,1.4,3.3,3.5L962,375.7z M1047.7,367.8c-2.2,0.2-4.2,1.6-4.4,3.1c-0.2,1.5-2.2,3-4.4,3.1L1003,377
					c-2.2,0.2-3.8-1-3.6-2.5c0.2-1.6-1.4-2.7-3.6-2.5l-24.5,2c-2.2,0.2-3.7-1.4-3.4-3.4l4-26.9c0.3-2.1,2.4-3.9,4.6-4l24.5-1.7
					c2.2-0.2,4.1-1,4.2-1.9s-1.6-1.5-3.7-1.4l-22.1,1.5c-2.2,0.2-3.7-1.4-3.4-3.5l2.2-15.1c0.3-2.1,2.4-3.9,4.6-4l22.1-1.4
					c2.2-0.1,4.1-1,4.2-1.8c0.1-0.9-1.6-1.5-3.8-1.3l-22.5,1.4c-2.2,0.1-3.7-1.4-3.4-3.5l2.1-14.2c0.3-2.1,2.4-3.9,4.5-4l22.4-1.3
					c2.2-0.1,4.1-0.9,4.2-1.6c0.1-0.8-1.6-1.3-3.8-1.2l-25.2,1.4c-2.2,0.1-4.2,1.9-4.5,4l-3.3,22.3c-0.3,2.1-2.3,3.7-4.4,3.5
					l-33.6-2c-2.1-0.1-3.6-2-3.3-4l4.5-30.8c0.3-2.1,2.3-3.7,4.5-3.5l32.5,2.2c2.1,0.1,4-0.4,4.1-1.1c0.1-0.7-1.6-1.5-3.7-1.6
					l-32.5-2.2c-2.1-0.1-3.6-2-3.3-4.1l4.6-31.1c0.3-2.1,2.3-3.7,4.4-3.5l33.6,2.9c2.1,0.2,3.6,2,3.3,4.1l-2.4,16.3
					c-0.3,2.1,1.2,3.7,3.4,3.6l25.2-1.2c2.2-0.1,4.1-0.9,4.2-1.8s-1.6-1.5-3.8-1.4l-22.4,1.1c-2.2,0.1-3.7-1.5-3.4-3.6l2.1-14.2
					c0.3-2.1,2.4-3.8,4.5-3.9l22.4-0.9c2.2-0.1,4.1-1.2,4.3-2.4c0.2-1.2,2.1-2.3,4.3-2.4l36.6-1.4c2.2-0.1,3.8,0.8,3.7,2
					c-0.2,1.2,1.5,2.1,3.7,2l22.2-0.9c2.2-0.1,3.7,1.5,3.4,3.5l-1.6,10.7c-0.3,2,0.3,3.6,1.4,3.6c1.1-0.1,1.7,1.5,1.4,3.6l-4.5,29.6
					c-0.3,2-1.4,3.7-2.5,3.8c-1.1,0.1-2.2,1.8-2.5,3.8l-1.5,10.2c-0.3,2-2.3,3.8-4.5,3.9l-23.1,1.4c-2.2,0.1-4.1,0.9-4.2,1.8
					c-0.1,0.9,1.6,1.4,3.8,1.3l23.1-1.5c2.2-0.1,3.7,1.4,3.4,3.4l-2.2,14.7c-0.3,2-2.3,3.8-4.5,3.9l-23.1,1.6
					c-2.2,0.2-4.1,1-4.2,1.9c-0.1,0.9,1.6,1.5,3.8,1.4l27.1-1.9c2.2-0.2,3.8,1.4,3.4,3.4l-3.9,26.1c-0.3,2-2.3,3.8-4.5,4
					L1047.7,367.8z M1063.5,256.4c0.2-1.4-1.4-2.4-3.6-2.3c-2.2,0.1-4.1,1.3-4.3,2.7c-0.2,1.4,1.4,2.4,3.6,2.3
					S1063.3,257.8,1063.5,256.4z M1059.7,282c0.2-1.3-1.4-2.3-3.6-2.2c-2.2,0.1-4.1,1.3-4.3,2.6c-0.2,1.3,1.4,2.3,3.6,2.2
					C1057.6,284.6,1059.5,283.4,1059.7,282z"/>
			</g>
		</g>
	</g>
</g>
</svg>
